<?xml version="1.0" encoding="utf-8"?><svg xml:space="preserve" viewBox="0 0 100 100" y="0px" x="0px" xmlns:xlink="http://www.w3.org/1999/xlink" xmlns="http://www.w3.org/2000/svg" id="圖層_1" version="1.1" width="200px" height="200px" style="width:100%;height:100%;background-size:initial;background-repeat-y:initial;background-repeat-x:initial;background-position-y:initial;background-position-x:initial;background-origin:initial;background-color:initial;background-clip:initial;background-attachment:initial;animation-play-state:paused" ><g class="ldl-scale" style="transform-origin:50% 50%;transform:rotate(0deg) scale(0.8, -0.8);animation-play-state:paused" ><path d="M59.5,60.5l-8,23.7c-0.5,1.4-2.5,1.4-2.9,0 l-8-23.7c-0.2-0.5-0.5-0.8-1-1l-23.7-8c-1.4-0.5-1.4-2.5,0-2.9l23.7-8c0.5-0.2,0.8-0.5,1-1l8-23.7c0.5-1.4,2.5-1.4,2.9,0l8,23.7 c0.2,0.5,0.5,0.8,1,1l23.7,8c1.4,0.5,1.4,2.5,0,2.9l-23.7,8C60,59.6,59.6,60,59.5,60.5z" stroke-miterlimit="10" stroke-width="3.5" stroke="#333435" fill="#F5E169" style="stroke:rgb(255, 255, 255);fill:rgb(255, 255, 255);animation-play-state:paused" ></path>
<metadata xmlns:d="https://loading.io/stock/" style="animation-play-state:paused" ><d:name style="animation-play-state:paused" >star</d:name>


<d:tags style="animation-play-state:paused" >star,diamond,shuriken,sparkling,flash</d:tags>


<d:license style="animation-play-state:paused" >by</d:license>


<d:slug style="animation-play-state:paused" >4xxf06</d:slug></metadata></g><!-- generated by https://loading.io/ --></svg>